<?xml version="1.0" standalone="no"?>
<!DOCTYPE svg PUBLIC "-//W3C//DTD SVG 20010904//EN"
 "http://www.w3.org/TR/2001/REC-SVG-20010904/DTD/svg10.dtd">
<svg version="1.0" xmlns="http://www.w3.org/2000/svg"
 width="300.000000pt" height="300.000000pt" viewBox="0 0 300.000000 300.000000"
 preserveAspectRatio="xMidYMid meet">
<metadata>
Created by potrace 1.11, written by Peter Selinger 2001-2013
</metadata>
<g transform="translate(0.000000,300.000000) scale(0.100000,-0.100000)"
fill="#000000" stroke="none">
<path d="M1615 2989 c-597 -87 -1045 -596 -1045 -1187 0 -205 39 -369 131
-554 27 -54 49 -101 49 -105 0 -3 -155 -162 -343 -352 -375 -378 -393 -401
-404 -518 -14 -150 124 -285 273 -270 115 12 140 31 515 404 190 188 349 343
352 343 4 0 48 -20 98 -45 182 -92 359 -135 554 -135 571 0 1051 395 1181 972
25 107 25 366 1 478 -82 382 -319 688 -662 856 -60 29 -144 63 -185 74 -165
45 -365 61 -515 39z m418 -343 c152 -45 256 -106 371 -215 171 -164 262 -364
273 -598 9 -182 -23 -325 -108 -482 -170 -315 -523 -500 -877 -460 -119 13
-191 34 -297 84 -345 165 -546 524 -504 905 43 390 329 703 719 786 106 22
314 12 423 -20z"/>
<path d="M1668 2343 c-23 -25 -33 -55 -53 -153 -26 -131 -15 -120 -104 -120
-99 0 -131 -20 -131 -80 0 -55 34 -80 110 -80 31 0 59 -2 62 -5 3 -3 -5 -54
-16 -113 l-22 -107 -46 -5 c-61 -7 -88 -32 -88 -81 0 -43 35 -79 77 -79 21 0
24 -4 20 -22 -28 -116 -40 -209 -29 -233 14 -31 55 -48 95 -39 36 8 50 39 80
182 l22 107 88 3 c87 3 88 3 82 -20 -18 -80 -35 -173 -35 -198 0 -65 75 -101
124 -58 23 20 31 42 53 151 l26 127 84 0 c76 0 86 2 108 25 33 32 33 78 0 110
-21 22 -33 25 -90 25 -49 0 -65 3 -65 14 0 8 9 58 20 111 11 53 20 99 20 101
0 2 20 4 45 4 113 0 132 135 22 155 l-34 7 18 91 c22 115 23 147 3 175 -20 29
-93 31 -117 4 -9 -10 -29 -75 -43 -145 l-27 -127 -84 0 c-60 0 -83 3 -83 13 0
6 9 59 20 117 20 102 20 105 2 130 -25 32 -90 40 -114 13z m222 -452 c0 -17
-19 -119 -35 -188 -5 -22 -10 -23 -90 -23 -47 0 -85 3 -85 8 0 4 10 55 21 115
l22 107 83 0 c76 0 84 -2 84 -19z"/>
</g>
</svg>
