<?xml version="1.0" encoding="UTF-8" standalone="no"?>
<!-- Generator: Adobe Illustrator 16.0.0, SVG Export Plug-In . SVG Version: 6.00 Build 0)  -->

<svg
   xmlns:dc="http://purl.org/dc/elements/1.1/"
   xmlns:cc="http://creativecommons.org/ns#"
   xmlns:rdf="http://www.w3.org/1999/02/22-rdf-syntax-ns#"
   xmlns:svg="http://www.w3.org/2000/svg"
   xmlns="http://www.w3.org/2000/svg"
   xmlns:sodipodi="http://sodipodi.sourceforge.net/DTD/sodipodi-0.dtd"
   xmlns:inkscape="http://www.inkscape.org/namespaces/inkscape"
   version="1.1"
   id="Capa_1"
   x="0px"
   y="0px"
   width="310.42px"
   height="310.42px"
   viewBox="0 0 310.42 310.42"
   style="enable-background:new 0 0 310.42 310.42;"
   xml:space="preserve"
   inkscape:version="0.91 r13725"
   sodipodi:docname="magnifier-with-hash.svg"
   inkscape:export-filename="C:\Pracovni\Ostatni\mqtt-wall\src\style\magnifier-with-hash.png"
   inkscape:export-xdpi="86.978775"
   inkscape:export-ydpi="86.978775"><metadata
     id="metadata45"><rdf:RDF><cc:Work
         rdf:about=""><dc:format>image/svg+xml</dc:format><dc:type
           rdf:resource="http://purl.org/dc/dcmitype/StillImage" /></cc:Work></rdf:RDF></metadata><defs
     id="defs43" /><sodipodi:namedview
     pagecolor="#ffffff"
     bordercolor="#666666"
     borderopacity="1"
     objecttolerance="10"
     gridtolerance="10"
     guidetolerance="10"
     inkscape:pageopacity="0"
     inkscape:pageshadow="2"
     inkscape:window-width="1920"
     inkscape:window-height="1017"
     id="namedview41"
     showgrid="false"
     inkscape:zoom="1.5205206"
     inkscape:cx="19.848824"
     inkscape:cy="219.11021"
     inkscape:window-x="-8"
     inkscape:window-y="-8"
     inkscape:window-maximized="1"
     inkscape:current-layer="Capa_1" /><circle
     style="fill:#ffffff;fill-opacity:1;stroke:#ffffff;stroke-width:15;stroke-miterlimit:4;stroke-dasharray:none;stroke-opacity:1"
     id="path4188"
     cx="186.44931"
     cy="125.28605"
     r="96.348587" /><path
     d="m 273.588,214.965 c 49.11,-49.111 49.11,-129.021 -0.001,-178.132 -49.11,-49.111 -129.02,-49.111 -178.131,0 C 53.793,78.497 47.483,140.462 76.51,188.85 c 0,0 2.085,3.496 -0.731,6.312 -16.065,16.064 -64.263,64.263 -64.263,64.263 -12.791,12.79 -15.837,30.675 -4.493,42.02 l 1.953,1.951 c 11.343,11.345 29.229,8.301 42.019,-4.49 0,0 48.096,-48.097 64.128,-64.128 2.951,-2.951 6.448,-0.866 6.448,-0.866 48.387,29.026 110.353,22.717 152.017,-18.947 z M 118.712,191.71 c -36.288,-36.288 -36.287,-95.332 0,-131.62 36.288,-36.287 95.333,-36.288 131.619,0 36.288,36.287 36.288,95.332 0,131.62 -36.287,36.287 -95.331,36.287 -131.619,0 z"
     id="path7"
     inkscape:connector-curvature="0"
     style="fill:#555555;fill-opacity:1" /><g
     id="g11" /><g
     id="g13" /><g
     id="g15" /><g
     id="g17" /><g
     id="g19" /><g
     id="g21" /><g
     id="g23" /><g
     id="g25" /><g
     id="g27" /><g
     id="g29" /><g
     id="g31" /><g
     id="g33" /><g
     id="g35" /><g
     id="g37" /><g
     id="g39" /><text
     xml:space="preserve"
     style="font-style:normal;font-variant:normal;font-weight:normal;font-stretch:normal;font-size:160.28782654px;line-height:125%;font-family:'Arial Rounded MT Bold';-inkscape-font-specification:'Arial Rounded MT Bold, Normal';text-align:start;letter-spacing:0px;word-spacing:0px;writing-mode:lr-tb;text-anchor:start;fill:#0cb0ff;fill-opacity:1;stroke:none;stroke-width:1px;stroke-linecap:butt;stroke-linejoin:miter;stroke-opacity:1"
     x="140.83496"
     y="182.16243"
     id="text4173"
     sodipodi:linespacing="125%"><tspan
       sodipodi:role="line"
       id="tspan4175"
       x="140.83496"
       y="182.16243">#</tspan></text>
</svg>